<svg width="304" height="369" viewBox="0 0 304 369" fill="none" xmlns="http://www.w3.org/2000/svg">
<g id="Items">
<path id="Vector" d="M136.718 48.4824H8.13843C6.22149 48.4824 4.38308 47.6248 3.0276 46.0981C1.67212 44.5713 0.910645 42.5007 0.910645 40.3416C0.910645 38.1825 1.67212 36.1119 3.0276 34.5851C4.38308 33.0584 6.22149 32.2007 8.13843 32.2007H136.718C138.635 32.2007 140.473 33.0584 141.829 34.5851C143.184 36.1119 143.945 38.1825 143.945 40.3416C143.945 42.5007 143.184 44.5713 141.829 46.0981C140.473 47.6248 138.635 48.4824 136.718 48.4824Z" fill="#CCCCCC"/>
<path id="Vector_2" d="M296.49 48.4824H167.91C165.993 48.4824 164.155 47.6248 162.799 46.0981C161.444 44.5713 160.683 42.5007 160.683 40.3416C160.683 38.1825 161.444 36.1119 162.799 34.5851C164.155 33.0584 165.993 32.2007 167.91 32.2007H296.49C298.407 32.2007 300.245 33.0584 301.6 34.5851C302.956 36.1119 303.717 38.1825 303.717 40.3416C303.717 42.5007 302.956 44.5713 301.6 46.0981C300.245 47.6248 298.407 48.4824 296.49 48.4824Z" fill="#CCCCCC"/>
<path id="Vector_3" d="M296.49 79.3324H72.8079C70.891 79.3324 69.0525 78.4747 67.697 76.948C66.3415 75.4213 65.58 73.3506 65.58 71.1915C65.58 69.0325 66.3415 66.9618 67.697 65.4351C69.0525 63.9084 70.891 63.0507 72.8079 63.0507H296.49C298.407 63.0507 300.245 63.9084 301.601 65.4351C302.956 66.9618 303.718 69.0325 303.718 71.1915C303.718 73.3506 302.956 75.4213 301.601 76.948C300.245 78.4747 298.407 79.3324 296.49 79.3324Z" fill="#CCCCCC"/>
<path id="Vector_4" d="M136.718 17.2045H8.13847C6.22308 17.2018 4.38698 16.343 3.03342 14.8165C1.67987 13.2901 0.919556 11.221 0.919556 9.06365C0.919556 6.9063 1.67987 4.83715 3.03342 3.31073C4.38698 1.78431 6.22308 0.925459 8.13847 0.922797H136.718C137.668 0.921476 138.608 1.13106 139.486 1.53959C140.364 1.94811 141.162 2.54756 141.834 3.30364C142.506 4.05972 143.04 4.95759 143.403 5.94594C143.767 6.93429 143.954 7.99373 143.954 9.06365C143.954 10.1336 143.767 11.193 143.403 12.1813C143.04 13.1697 142.506 14.0676 141.834 14.8237C141.162 15.5797 140.364 16.1792 139.486 16.5877C138.608 16.9962 137.668 17.2058 136.718 17.2045Z" fill="#CCCCCC"/>
<path id="Vector_5" d="M207.474 17.6331H170.954C169.037 17.6331 167.199 16.7754 165.843 15.2487C164.488 13.7219 163.726 11.6513 163.726 9.4922C163.726 7.33311 164.488 5.26245 165.843 3.73574C167.199 2.20904 169.037 1.35135 170.954 1.35135H207.474C209.391 1.35135 211.229 2.20904 212.585 3.73574C213.94 5.26245 214.702 7.33311 214.702 9.4922C214.702 11.6513 213.94 13.7219 212.585 15.2487C211.229 16.7754 209.391 17.6331 207.474 17.6331Z" fill="#CCCCCC"/>
<path id="Vector_6" d="M44.658 79.3324H8.13847C6.22308 79.3297 4.38698 78.4709 3.03342 76.9445C1.67987 75.418 0.919556 73.3489 0.919556 71.1915C0.919556 69.0342 1.67987 66.965 3.03342 65.4386C4.38698 63.9122 6.22308 63.0534 8.13847 63.0507H44.658C45.6079 63.0494 46.5488 63.259 47.4267 63.6675C48.3047 64.076 49.1025 64.6754 49.7746 65.4315C50.4467 66.1876 50.98 67.0855 51.3437 68.0739C51.7075 69.0622 51.8948 70.1216 51.8948 71.1915C51.8948 72.2615 51.7075 73.3209 51.3437 74.3092C50.98 75.2976 50.4467 76.1955 49.7746 76.9515C49.1025 77.7076 48.3047 78.3071 47.4267 78.7156C46.5488 79.1241 45.6079 79.3337 44.658 79.3324Z" fill="#CCCCCC"/>
<path id="Vector_7" d="M136.718 337.362H8.13843C6.22149 337.362 4.38308 336.504 3.0276 334.978C1.67212 333.451 0.910645 331.38 0.910645 329.221C0.910645 327.062 1.67212 324.991 3.0276 323.465C4.38308 321.938 6.22149 321.08 8.13843 321.08H136.718C137.667 321.08 138.607 321.291 139.484 321.7C140.361 322.109 141.157 322.709 141.829 323.465C142.5 324.221 143.032 325.118 143.395 326.106C143.759 327.093 143.945 328.152 143.945 329.221C143.945 330.29 143.759 331.349 143.395 332.337C143.032 333.324 142.5 334.222 141.829 334.978C141.157 335.734 140.361 336.333 139.484 336.742C138.607 337.151 137.667 337.362 136.718 337.362Z" fill="#CCCCCC"/>
<path id="Vector_8" d="M296.49 337.362H167.91C165.993 337.362 164.155 336.504 162.799 334.978C161.444 333.451 160.683 331.38 160.683 329.221C160.683 327.062 161.444 324.991 162.799 323.465C164.155 321.938 165.993 321.08 167.91 321.08H296.49C297.439 321.08 298.379 321.291 299.256 321.7C300.132 322.109 300.929 322.709 301.6 323.465C302.272 324.221 302.804 325.118 303.167 326.106C303.53 327.093 303.717 328.152 303.717 329.221C303.717 330.29 303.53 331.349 303.167 332.337C302.804 333.324 302.272 334.222 301.6 334.978C300.929 335.734 300.132 336.333 299.256 336.742C298.379 337.151 297.439 337.362 296.49 337.362Z" fill="#CCCCCC"/>
<path id="Vector_9" d="M296.49 368.211H72.8079C70.891 368.211 69.0525 367.354 67.697 365.827C66.3415 364.3 65.58 362.23 65.58 360.071C65.58 357.911 66.3415 355.841 67.697 354.314C69.0525 352.787 70.891 351.93 72.8079 351.93H296.49C297.44 351.928 298.381 352.138 299.259 352.547C300.137 352.955 300.935 353.554 301.607 354.311C302.279 355.067 302.812 355.965 303.176 356.953C303.54 357.941 303.727 359.001 303.727 360.071C303.727 361.14 303.54 362.2 303.176 363.188C302.812 364.177 302.279 365.074 301.607 365.831C300.935 366.587 300.137 367.186 299.259 367.595C298.381 368.003 297.44 368.213 296.49 368.211Z" fill="#CCCCCC"/>
<path id="Vector_10" d="M136.718 306.083H8.13843C6.22149 306.083 4.38308 305.226 3.0276 303.699C1.67212 302.172 0.910645 300.102 0.910645 297.943C0.910645 295.784 1.67212 293.713 3.0276 292.186C4.38308 290.659 6.22149 289.802 8.13843 289.802H136.718C138.635 289.802 140.473 290.659 141.829 292.186C143.184 293.713 143.945 295.784 143.945 297.943C143.945 300.102 143.184 302.172 141.829 303.699C140.473 305.226 138.635 306.083 136.718 306.083Z" fill="#CCCCCC"/>
<path id="Vector_11" d="M207.474 306.512H170.954C169.037 306.512 167.199 305.654 165.843 304.128C164.488 302.601 163.726 300.53 163.726 298.371C163.726 296.212 164.488 294.141 165.843 292.615C167.199 291.088 169.037 290.23 170.954 290.23H207.474C209.391 290.23 211.229 291.088 212.585 292.615C213.94 294.141 214.702 296.212 214.702 298.371C214.702 300.53 213.94 302.601 212.585 304.128C211.229 305.654 209.391 306.512 207.474 306.512Z" fill="#CCCCCC"/>
<path id="Vector_12" d="M44.658 368.211H8.13843C6.22149 368.211 4.38308 367.354 3.0276 365.827C1.67212 364.3 0.910645 362.23 0.910645 360.071C0.910645 357.911 1.67212 355.841 3.0276 354.314C4.38308 352.787 6.22149 351.93 8.13843 351.93H44.658C45.6079 351.928 46.5488 352.138 47.4267 352.547C48.3047 352.955 49.1025 353.554 49.7746 354.311C50.4467 355.067 50.9799 355.965 51.3437 356.953C51.7075 357.941 51.8948 359.001 51.8948 360.071C51.8948 361.14 51.7075 362.2 51.3437 363.188C50.9799 364.177 50.4467 365.074 49.7746 365.831C49.1025 366.587 48.3047 367.186 47.4267 367.595C46.5488 368.003 45.6079 368.213 44.658 368.211Z" fill="#CCCCCC"/>
<path id="Vector_13" d="M103.136 249.963C100.408 249.97 97.7871 248.762 95.8454 246.603L47.5119 192.845C46.563 191.79 45.8096 190.533 45.2954 189.147C44.7812 187.761 44.5164 186.274 44.5164 184.772C44.5164 183.27 44.7812 181.783 45.2954 180.397C45.8096 179.011 46.563 177.754 47.5119 176.699L95.6501 123.158C97.6555 120.938 100.357 119.698 103.169 119.708C105.981 119.718 108.675 120.977 110.668 123.211C112.663 125.463 113.784 128.514 113.784 131.695C113.784 134.877 112.664 137.928 110.669 140.18L74.8979 180.47C73.7835 181.728 73.1576 183.433 73.1576 185.21C73.1576 186.987 73.7835 188.692 74.8979 189.95L110.475 230.022C111.927 231.655 112.917 233.737 113.318 236.004C113.72 238.271 113.514 240.622 112.728 242.757C111.942 244.893 110.611 246.718 108.904 248.001C107.196 249.284 105.189 249.967 103.136 249.963Z" fill="#8442FF"/>
<path id="Vector_14" d="M180.152 249.963C178.1 249.967 176.092 249.284 174.385 248.001C172.677 246.718 171.346 244.893 170.56 242.757C169.774 240.622 169.569 238.271 169.97 236.004C170.371 233.737 171.361 231.655 172.814 230.022L208.391 189.95C209.505 188.692 210.131 186.988 210.131 185.21C210.131 183.433 209.505 181.728 208.391 180.47L172.62 140.18C171.631 139.066 170.846 137.743 170.31 136.287C169.775 134.831 169.499 133.271 169.5 131.695C169.5 130.12 169.775 128.559 170.311 127.104C170.846 125.648 171.631 124.325 172.62 123.211C174.613 120.977 177.308 119.718 180.119 119.708C182.931 119.698 185.633 120.938 187.638 123.158L235.777 176.699C236.725 177.754 237.479 179.011 237.993 180.397C238.507 181.783 238.772 183.27 238.772 184.772C238.772 186.274 238.507 187.761 237.993 189.147C237.479 190.533 236.725 191.79 235.777 192.845L187.443 246.603C185.501 248.762 182.881 249.97 180.152 249.963Z" fill="#8442FF"/>
</g>
</svg>
