<svg width="135" height="469" viewBox="0 0 135 469" fill="none" xmlns="http://www.w3.org/2000/svg">
<g id="Person">
<path id="Vector" d="M104.703 72.4486C119.635 72.4486 131.739 58.8151 131.739 41.9972C131.739 25.1794 119.635 11.5459 104.703 11.5459C89.7716 11.5459 77.6671 25.1794 77.6671 41.9972C77.6671 58.8151 89.7716 72.4486 104.703 72.4486Z" fill="#FFB8B8"/>
<path id="Vector_2" d="M13.3491 406.908L20.1948 420.008L68.3117 396.5L58.2078 377.168L13.3491 406.908Z" fill="#FFB8B8"/>
<path id="Vector_3" d="M15.4004 401.05L28.882 426.847C30.0102 429.006 30.7504 431.395 31.0592 433.876C31.368 436.357 31.2399 438.882 30.6823 441.307C30.1246 443.732 29.1484 446.01 27.8092 448.01C26.47 450.01 24.7941 451.693 22.8773 452.964L22.4029 453.279L0.329803 411.041L15.4004 401.05Z" fill="#2F2E41"/>
<path id="Vector_4" d="M92.6675 454.099L106.163 454.098L112.583 395.469L92.6653 395.471L92.6675 454.099Z" fill="#FFB8B8"/>
<path id="Vector_5" d="M89.2256 449.136L115.802 449.135C118.027 449.135 120.23 449.628 122.285 450.587C124.34 451.546 126.207 452.951 127.78 454.722C129.353 456.494 130.6 458.597 131.451 460.911C132.303 463.226 132.741 465.706 132.741 468.211V468.831L89.2265 468.833L89.2256 449.136Z" fill="#2F2E41"/>
<path id="Vector_6" d="M38.412 418.578C37.6354 418.579 36.8695 418.373 36.1765 417.978C35.4834 417.583 34.8827 417.01 34.4229 416.305L21.4076 396.396C21.0106 395.788 20.7269 395.097 20.5739 394.362C20.4209 393.628 20.4017 392.866 20.5174 392.124C20.6331 391.381 20.8813 390.672 21.2471 390.04C21.6129 389.409 22.0886 388.867 22.6454 388.448L80.5615 344.879L45.6157 241.385L120.346 248.331L122.863 337.268C123.099 345.367 121.376 353.387 117.877 360.468C114.378 367.549 109.236 373.425 103 377.468L40.8869 417.828C40.1349 418.319 39.2812 418.578 38.412 418.578Z" fill="#2F2E41"/>
<path id="Vector_7" d="M93.0756 442.196C91.794 442.194 90.5632 441.632 89.6417 440.628C88.7203 439.625 88.1801 438.258 88.1345 436.816L85.3958 350.174L119.309 348.162L116.608 435.426C116.569 436.808 116.073 438.124 115.218 439.118C114.364 440.111 113.211 440.71 111.986 440.798L93.4124 442.184C93.2997 442.193 93.1874 442.196 93.0756 442.196Z" fill="#2F2E41"/>
<path id="Vector_8" d="M128.996 265.536C120.367 265.536 90.2302 254.605 79.7677 250.709C78.2026 252.119 69.6041 259.361 59.5674 258.038C53.3744 257.219 47.9224 253.271 43.3629 246.302C33.2942 230.91 45.7303 164.906 57.9361 112.244C60.383 101.6 66.3987 92.4384 74.7184 86.6859C83.0382 80.9334 93.014 79.0378 102.549 81.3977C109.46 83.1161 115.808 86.9709 120.881 92.529C125.954 98.0872 129.55 105.129 131.265 112.862C133.563 123.398 131.587 135.791 130.143 144.842C129.465 149.097 128.928 152.458 129.112 154.109C129.82 160.492 133.756 260.6 131.225 264.875C130.956 265.33 130.176 265.536 128.996 265.536Z" fill="#8442FF"/>
<path id="Vector_9" d="M97.4313 265.713C98.818 264.55 99.9615 263.059 100.781 261.345C101.601 259.631 102.077 257.735 102.176 255.791C102.275 253.847 101.994 251.902 101.353 250.093C100.713 248.285 99.7276 246.657 98.4678 245.323L99.002 124.014L73.635 128.772L81.0863 246.519C79.2378 249.051 78.2783 252.259 78.3894 255.535C78.5006 258.811 79.6748 261.927 81.6895 264.293C83.7042 266.659 86.4195 268.11 89.3208 268.372C92.2221 268.634 95.1079 267.688 97.4313 265.713Z" fill="#FFB8B8"/>
<path id="Vector_10" d="M103.298 201.92H75.9749C74.6701 201.916 73.4192 201.333 72.4924 200.299C71.5655 199.265 71.0372 197.861 71.0214 196.392L70.3507 112.961C70.3274 110.076 70.8122 107.215 71.777 104.543C72.7418 101.87 74.1675 99.4396 75.9716 97.3917C77.7756 95.3437 79.9223 93.719 82.2874 92.6113C84.6524 91.5037 87.189 90.9352 89.7504 90.9387C92.3118 90.9423 94.8472 91.5177 97.2098 92.6318C99.5725 93.746 101.716 95.3767 103.515 97.4296C105.315 99.4825 106.735 101.917 107.694 104.592C108.653 107.267 109.132 110.13 109.102 113.015L108.251 196.405C108.232 197.872 107.702 199.271 106.776 200.303C105.849 201.334 104.601 201.915 103.298 201.92Z" fill="#8442FF"/>
<path id="Vector_11" d="M97.82 72.3219C85.4415 72.3474 73.7635 61.3271 71.6184 47.5958C70.8504 42.2014 71.1967 36.6803 72.6303 31.461C74.1869 25.5196 76.8563 20.023 80.4586 15.3419C84.0609 10.6608 88.5123 6.90389 93.5129 4.32453C98.5134 1.74516 103.947 0.403256 109.447 0.389271C114.947 0.375285 120.385 1.68954 125.396 4.24344C128.708 5.93123 131.969 8.35526 133.486 12.0759C135.002 15.7966 134.053 20.9968 130.736 22.671C128.568 23.765 125.848 23.2278 123.925 24.7982C121.163 27.0539 121.874 31.8544 123.108 35.4373C124.341 39.0202 125.736 43.3559 123.668 46.4127C121.742 49.261 117.891 49.1726 114.857 48.1005C111.824 47.0284 108.83 45.2331 105.668 45.5983C101.055 46.1309 97.7401 51.2987 97.1265 56.4754C96.513 61.652 97.9573 66.8266 99.3833 71.7961L97.82 72.3219Z" fill="#2F2E41"/>
</g>
</svg>
