<svg width="742" height="539" viewBox="0 0 742 539" fill="none" xmlns="http://www.w3.org/2000/svg">
<g id="Screen">
<path id="Vector" d="M723.837 538.763H18.4198C13.6044 538.757 8.98777 536.6 5.58277 532.765C2.17778 528.929 0.262461 523.73 0.257019 518.306V28.3846C0.260943 24.4111 1.66407 20.6017 4.15857 17.792C6.65307 14.9822 10.0352 13.4017 13.563 13.3971H728.464C732.053 13.4017 735.493 15.0095 738.031 17.8678C740.569 20.7261 741.996 24.6015 742 28.6437V518.306C741.995 523.73 740.079 528.929 736.674 532.765C733.269 536.6 728.653 538.757 723.837 538.763Z" fill="#F2F2F2"/>
<path id="Vector_2" d="M701.029 512.934H43.5986C33.9614 512.934 26.121 504.665 26.121 494.5V67.8707C26.121 60.3324 31.9309 54.1993 39.0723 54.1993H705.341C712.601 54.1993 718.507 60.4335 718.507 68.0959V494.5C718.507 504.665 710.667 512.934 701.029 512.934Z" fill="white"/>
<path id="Vector_3" d="M741.748 30.9338H0.00244141V20.5188C0.00942431 15.0771 1.93256 9.86073 5.34993 6.01405C8.7673 2.16736 13.3998 0.00451218 18.2312 0H723.519C728.35 0.00446629 732.983 2.16729 736.4 6.01399C739.818 9.86069 741.741 15.0771 741.748 20.5188V30.9338Z" fill="#3F3D56"/>
<path id="Vector_4" d="M33.1306 20.8086C35.7347 20.8086 37.8457 18.4309 37.8457 15.4979C37.8457 12.5649 35.7347 10.1872 33.1306 10.1872C30.5266 10.1872 28.4156 12.5649 28.4156 15.4979C28.4156 18.4309 30.5266 20.8086 33.1306 20.8086Z" fill="white"/>
<path id="Vector_5" d="M51.027 20.8086C53.631 20.8086 55.742 18.4309 55.742 15.4979C55.742 12.5649 53.631 10.1872 51.027 10.1872C48.4229 10.1872 46.3119 12.5649 46.3119 15.4979C46.3119 18.4309 48.4229 20.8086 51.027 20.8086Z" fill="white"/>
<path id="Vector_6" d="M68.9244 20.8086C71.5285 20.8086 73.6395 18.4309 73.6395 15.4979C73.6395 12.5649 71.5285 10.1872 68.9244 10.1872C66.3204 10.1872 64.2094 12.5649 64.2094 15.4979C64.2094 18.4309 66.3204 20.8086 68.9244 20.8086Z" fill="white"/>
</g>
</svg>
